<?xml version="1.0" encoding="utf-8"?>
<svg version="1.1" xmlns="http://www.w3.org/2000/svg" xmlns:xlink="http://www.w3.org/1999/xlink" x="0px" y="0px"
	 viewBox="0 0 1000 1000" style="enable-background:new 0 0 1000 1000;" xml:space="preserve">
<style type="text/css">
	.st0{display:none;}
	.st1{display:inline;fill:#2D3335;}
	.st2{display:inline;}
	.st3{fill:#FFFFFF;}
	.st4{fill:none;stroke:#FFFFFF;stroke-width:100;stroke-miterlimit:10;}
</style>
<g id="Layer_1" class="st0">
	<circle class="st1" cx="500" cy="500" r="500"/>
	<g class="st2">
		<path class="st3" d="M148.36,1000V0.33h165.03v421.78H686.8V0.33h165.05V1000H686.8V545.36H313.39V1000H148.36z"/>
	</g>
	<g class="st2">
		<path class="st3" d="M386.5,993.88L80.22,12.79c-1.75-5.62,2.44-11.32,8.33-11.32h151.63c3.88,0,7.29,2.55,8.37,6.28
			c20.31,69.8,203.92,700.9,246.27,850.25c2.41,8.5,14.47,8.44,16.8-0.08C552.36,708.45,731.75,77.84,751.68,7.8
			c1.07-3.75,4.49-6.33,8.39-6.33h151.57c5.89,0,10.08,5.71,8.32,11.33L612.04,993.89c-1.14,3.64-4.51,6.11-8.32,6.11h-208.9
			C391.01,1000,387.63,997.52,386.5,993.88z"/>
	</g>
</g>
<g id="Layer_2">
	<path class="st3" d="M337.78,96.16l78.25-22.99c55.61-10.73,112.77-10.72,168.38,0.02l78.24,23.04v174.05l-45.88,161.81H386.12
		l-48.77-167.96L337.78,96.16z"/>
	<path class="st3" d="M417.21,539.32h169.22l-76.2,271.93c-2.32,7.59-13.06,7.59-15.38,0L417.21,539.32z"/>
	<circle class="st4" cx="500" cy="500" r="434.86"/>
	<g>
	</g>
	<g>
	</g>
	<g>
	</g>
	<g>
	</g>
	<g>
	</g>
</g>
</svg>
